<svg version="1.1" xmlns="http://www.w3.org/2000/svg" xmlns:xlink="http://www.w3.org/1999/xlink" width="800" height="800"><defs/><g transform="scale(2,2)"><g id="background-529e3545"><rect fill="white" stroke="none" x="0" y="0" width="400" height="400" class="dcg-svg-background"/></g><g id="background-images-529e3545"/><g id="graphpaper-529e3545"><g id="grid-529e3545"><g><path fill="none" stroke="rgb(0,0,0)" class="dcg-svg-minor-gridline" paint-order="fill stroke markers" d=" M 19.5 0 L 19.5 400" stroke-opacity="0.2" stroke-miterlimit="10" stroke-dasharray=""/><path fill="none" stroke="rgb(0,0,0)" class="dcg-svg-minor-gridline" paint-order="fill stroke markers" d=" M 39.5 0 L 39.5 400" stroke-opacity="0.2" stroke-miterlimit="10" stroke-dasharray=""/><path fill="none" stroke="rgb(0,0,0)" class="dcg-svg-minor-gridline" paint-order="fill stroke markers" d=" M 59.5 0 L 59.5 400" stroke-opacity="0.2" stroke-miterlimit="10" stroke-dasharray=""/><path fill="none" stroke="rgb(0,0,0)" class="dcg-svg-minor-gridline" paint-order="fill stroke markers" d=" M 79.5 0 L 79.5 400" stroke-opacity="0.2" stroke-miterlimit="10" stroke-dasharray=""/><path fill="none" stroke="rgb(0,0,0)" class="dcg-svg-minor-gridline" paint-order="fill stroke markers" d=" M 99.5 0 L 99.5 400" stroke-opacity="0.2" stroke-miterlimit="10" stroke-dasharray=""/><path fill="none" stroke="rgb(0,0,0)" class="dcg-svg-minor-gridline" paint-order="fill stroke markers" d=" M 119.5 0 L 119.5 400" stroke-opacity="0.2" stroke-miterlimit="10" stroke-dasharray=""/><path fill="none" stroke="rgb(0,0,0)" class="dcg-svg-minor-gridline" paint-order="fill stroke markers" d=" M 139.5 0 L 139.5 400" stroke-opacity="0.2" stroke-miterlimit="10" stroke-dasharray=""/><path fill="none" stroke="rgb(0,0,0)" class="dcg-svg-minor-gridline" paint-order="fill stroke markers" d=" M 159.5 0 L 159.5 400" stroke-opacity="0.2" stroke-miterlimit="10" stroke-dasharray=""/><path fill="none" stroke="rgb(0,0,0)" class="dcg-svg-minor-gridline" paint-order="fill stroke markers" d=" M 179.5 0 L 179.5 400" stroke-opacity="0.2" stroke-miterlimit="10" stroke-dasharray=""/><path fill="none" stroke="rgb(0,0,0)" class="dcg-svg-minor-gridline" paint-order="fill stroke markers" d=" M 219.5 0 L 219.5 400" stroke-opacity="0.2" stroke-miterlimit="10" stroke-dasharray=""/><path fill="none" stroke="rgb(0,0,0)" class="dcg-svg-minor-gridline" paint-order="fill stroke markers" d=" M 239.5 0 L 239.5 400" stroke-opacity="0.2" stroke-miterlimit="10" stroke-dasharray=""/><path fill="none" stroke="rgb(0,0,0)" class="dcg-svg-minor-gridline" paint-order="fill stroke markers" d=" M 259.5 0 L 259.5 400" stroke-opacity="0.2" stroke-miterlimit="10" stroke-dasharray=""/><path fill="none" stroke="rgb(0,0,0)" class="dcg-svg-minor-gridline" paint-order="fill stroke markers" d=" M 279.5 0 L 279.5 400" stroke-opacity="0.2" stroke-miterlimit="10" stroke-dasharray=""/><path fill="none" stroke="rgb(0,0,0)" class="dcg-svg-minor-gridline" paint-order="fill stroke markers" d=" M 299.5 0 L 299.5 400" stroke-opacity="0.2" stroke-miterlimit="10" stroke-dasharray=""/><path fill="none" stroke="rgb(0,0,0)" class="dcg-svg-minor-gridline" paint-order="fill stroke markers" d=" M 319.5 0 L 319.5 400" stroke-opacity="0.2" stroke-miterlimit="10" stroke-dasharray=""/><path fill="none" stroke="rgb(0,0,0)" class="dcg-svg-minor-gridline" paint-order="fill stroke markers" d=" M 339.5 0 L 339.5 400" stroke-opacity="0.2" stroke-miterlimit="10" stroke-dasharray=""/><path fill="none" stroke="rgb(0,0,0)" class="dcg-svg-minor-gridline" paint-order="fill stroke markers" d=" M 359.5 0 L 359.5 400" stroke-opacity="0.2" stroke-miterlimit="10" stroke-dasharray=""/><path fill="none" stroke="rgb(0,0,0)" class="dcg-svg-minor-gridline" paint-order="fill stroke markers" d=" M 379.5 0 L 379.5 400" stroke-opacity="0.2" stroke-miterlimit="10" stroke-dasharray=""/><path fill="none" stroke="rgb(0,0,0)" class="dcg-svg-minor-gridline" paint-order="fill stroke markers" d=" M 0 379.5 L 400 379.5" stroke-opacity="0.2" stroke-miterlimit="10" stroke-dasharray=""/><path fill="none" stroke="rgb(0,0,0)" class="dcg-svg-minor-gridline" paint-order="fill stroke markers" d=" M 0 359.5 L 400 359.5" stroke-opacity="0.2" stroke-miterlimit="10" stroke-dasharray=""/><path fill="none" stroke="rgb(0,0,0)" class="dcg-svg-minor-gridline" paint-order="fill stroke markers" d=" M 0 339.5 L 400 339.5" stroke-opacity="0.2" stroke-miterlimit="10" stroke-dasharray=""/><path fill="none" stroke="rgb(0,0,0)" class="dcg-svg-minor-gridline" paint-order="fill stroke markers" d=" M 0 319.5 L 400 319.5" stroke-opacity="0.2" stroke-miterlimit="10" stroke-dasharray=""/><path fill="none" stroke="rgb(0,0,0)" class="dcg-svg-minor-gridline" paint-order="fill stroke markers" d=" M 0 299.5 L 400 299.5" stroke-opacity="0.2" stroke-miterlimit="10" stroke-dasharray=""/><path fill="none" stroke="rgb(0,0,0)" class="dcg-svg-minor-gridline" paint-order="fill stroke markers" d=" M 0 279.5 L 400 279.5" stroke-opacity="0.2" stroke-miterlimit="10" stroke-dasharray=""/><path fill="none" stroke="rgb(0,0,0)" class="dcg-svg-minor-gridline" paint-order="fill stroke markers" d=" M 0 259.5 L 400 259.5" stroke-opacity="0.2" stroke-miterlimit="10" stroke-dasharray=""/><path fill="none" stroke="rgb(0,0,0)" class="dcg-svg-minor-gridline" paint-order="fill stroke markers" d=" M 0 239.5 L 400 239.5" stroke-opacity="0.2" stroke-miterlimit="10" stroke-dasharray=""/><path fill="none" stroke="rgb(0,0,0)" class="dcg-svg-minor-gridline" paint-order="fill stroke markers" d=" M 0 219.5 L 400 219.5" stroke-opacity="0.2" stroke-miterlimit="10" stroke-dasharray=""/><path fill="none" stroke="rgb(0,0,0)" class="dcg-svg-minor-gridline" paint-order="fill stroke markers" d=" M 0 179.5 L 400 179.5" stroke-opacity="0.2" stroke-miterlimit="10" stroke-dasharray=""/><path fill="none" stroke="rgb(0,0,0)" class="dcg-svg-minor-gridline" paint-order="fill stroke markers" d=" M 0 159.5 L 400 159.5" stroke-opacity="0.2" stroke-miterlimit="10" stroke-dasharray=""/><path fill="none" stroke="rgb(0,0,0)" class="dcg-svg-minor-gridline" paint-order="fill stroke markers" d=" M 0 139.5 L 400 139.5" stroke-opacity="0.2" stroke-miterlimit="10" stroke-dasharray=""/><path fill="none" stroke="rgb(0,0,0)" class="dcg-svg-minor-gridline" paint-order="fill stroke markers" d=" M 0 119.5 L 400 119.5" stroke-opacity="0.2" stroke-miterlimit="10" stroke-dasharray=""/><path fill="none" stroke="rgb(0,0,0)" class="dcg-svg-minor-gridline" paint-order="fill stroke markers" d=" M 0 99.5 L 400 99.5" stroke-opacity="0.2" stroke-miterlimit="10" stroke-dasharray=""/><path fill="none" stroke="rgb(0,0,0)" class="dcg-svg-minor-gridline" paint-order="fill stroke markers" d=" M 0 79.5 L 400 79.5" stroke-opacity="0.2" stroke-miterlimit="10" stroke-dasharray=""/><path fill="none" stroke="rgb(0,0,0)" class="dcg-svg-minor-gridline" paint-order="fill stroke markers" d=" M 0 59.5 L 400 59.5" stroke-opacity="0.2" stroke-miterlimit="10" stroke-dasharray=""/><path fill="none" stroke="rgb(0,0,0)" class="dcg-svg-minor-gridline" paint-order="fill stroke markers" d=" M 0 39.5 L 400 39.5" stroke-opacity="0.2" stroke-miterlimit="10" stroke-dasharray=""/><path fill="none" stroke="rgb(0,0,0)" class="dcg-svg-minor-gridline" paint-order="fill stroke markers" d=" M 0 19.5 L 400 19.5" stroke-opacity="0.2" stroke-miterlimit="10" stroke-dasharray=""/><path fill="none" stroke="rgb(0,0,0)" class="dcg-svg-minor-gridline" paint-order="fill stroke markers" d=" M 0 -0.5 L 400 -0.5" stroke-opacity="0.2" stroke-miterlimit="10" stroke-dasharray=""/><path fill="none" stroke="rgb(0,0,0)" class="dcg-svg-major-gridline" paint-order="fill stroke markers" d=" M 39.5 0 L 39.5 400" stroke-opacity="0.2500000000000001" stroke-miterlimit="10" stroke-dasharray=""/><path fill="none" stroke="rgb(0,0,0)" class="dcg-svg-major-gridline" paint-order="fill stroke markers" d=" M 119.5 0 L 119.5 400" stroke-opacity="0.2500000000000001" stroke-miterlimit="10" stroke-dasharray=""/><path fill="none" stroke="rgb(0,0,0)" class="dcg-svg-major-gridline" paint-order="fill stroke markers" d=" M 279.5 0 L 279.5 400" stroke-opacity="0.2500000000000001" stroke-miterlimit="10" stroke-dasharray=""/><path fill="none" stroke="rgb(0,0,0)" class="dcg-svg-major-gridline" paint-order="fill stroke markers" d=" M 359.5 0 L 359.5 400" stroke-opacity="0.2500000000000001" stroke-miterlimit="10" stroke-dasharray=""/><path fill="none" stroke="rgb(0,0,0)" class="dcg-svg-major-gridline" paint-order="fill stroke markers" d=" M 0 359.5 L 400 359.5" stroke-opacity="0.2500000000000001" stroke-miterlimit="10" stroke-dasharray=""/><path fill="none" stroke="rgb(0,0,0)" class="dcg-svg-major-gridline" paint-order="fill stroke markers" d=" M 0 279.5 L 400 279.5" stroke-opacity="0.2500000000000001" stroke-miterlimit="10" stroke-dasharray=""/><path fill="none" stroke="rgb(0,0,0)" class="dcg-svg-major-gridline" paint-order="fill stroke markers" d=" M 0 119.5 L 400 119.5" stroke-opacity="0.2500000000000001" stroke-miterlimit="10" stroke-dasharray=""/><path fill="none" stroke="rgb(0,0,0)" class="dcg-svg-major-gridline" paint-order="fill stroke markers" d=" M 0 39.5 L 400 39.5" stroke-opacity="0.2500000000000001" stroke-miterlimit="10" stroke-dasharray=""/></g></g><g id="axis-529e3545"><g id="yaxis-529e3545"><title>Y axis</title><path fill="none" stroke="rgb(0,0,0)" class="dcg-svg-axis-line" paint-order="fill stroke markers" d=" M 200 0 L 200 400" stroke-opacity="0.9" stroke-miterlimit="10" stroke-width="1.5" stroke-dasharray=""/></g><g id="xaxis-529e3545"><title>X axis</title><path fill="none" stroke="rgb(0,0,0)" class="dcg-svg-axis-line" paint-order="fill stroke markers" d=" M 0 200 L 400 200" stroke-opacity="0.9" stroke-miterlimit="10" stroke-width="1.5" stroke-dasharray=""/></g><g><g class="dcg-svg-axis-value"><text fill="none" stroke="#ffffff" font-family="Arial" font-size="14px" font-style="normal" font-weight="normal" text-decoration="normal" x="191.10693359374994" y="215.80800000000022" text-anchor="middle" stroke-miterlimit="2" stroke-width="3" stroke-dasharray="">0</text><text fill="#000000" stroke="none" font-family="Arial" font-size="14px" font-style="normal" font-weight="normal" text-decoration="normal" x="191.10693359374994" y="215.80800000000022" text-anchor="middle">0</text></g><g class="dcg-svg-axis-value"><text fill="none" stroke="#ffffff" font-family="Arial" font-size="14px" font-style="normal" font-weight="normal" text-decoration="normal" x="37.66894531249994" y="215.80800000000022" text-anchor="middle" stroke-miterlimit="2" stroke-width="3" stroke-dasharray="">-4</text><text fill="#000000" stroke="none" font-family="Arial" font-size="14px" font-style="normal" font-weight="normal" text-decoration="normal" x="37.66894531249994" y="215.80800000000022" text-anchor="middle">-4</text></g><g class="dcg-svg-axis-value"><text fill="none" stroke="#ffffff" font-family="Arial" font-size="14px" font-style="normal" font-weight="normal" text-decoration="normal" x="117.66894531249994" y="215.80800000000022" text-anchor="middle" stroke-miterlimit="2" stroke-width="3" stroke-dasharray="">-2</text><text fill="#000000" stroke="none" font-family="Arial" font-size="14px" font-style="normal" font-weight="normal" text-decoration="normal" x="117.66894531249994" y="215.80800000000022" text-anchor="middle">-2</text></g><g class="dcg-svg-axis-value"><text fill="none" stroke="#ffffff" font-family="Arial" font-size="14px" font-style="normal" font-weight="normal" text-decoration="normal" x="279.99999999999994" y="215.80800000000022" text-anchor="middle" stroke-miterlimit="2" stroke-width="3" stroke-dasharray="">2</text><text fill="#000000" stroke="none" font-family="Arial" font-size="14px" font-style="normal" font-weight="normal" text-decoration="normal" x="279.99999999999994" y="215.80800000000022" text-anchor="middle">2</text></g><g class="dcg-svg-axis-value"><text fill="none" stroke="#ffffff" font-family="Arial" font-size="14px" font-style="normal" font-weight="normal" text-decoration="normal" x="359.99999999999994" y="215.80800000000022" text-anchor="middle" stroke-miterlimit="2" stroke-width="3" stroke-dasharray="">4</text><text fill="#000000" stroke="none" font-family="Arial" font-size="14px" font-style="normal" font-weight="normal" text-decoration="normal" x="359.99999999999994" y="215.80800000000022" text-anchor="middle">4</text></g><g class="dcg-svg-axis-value"><text fill="none" stroke="#ffffff" font-family="Arial" font-size="14px" font-style="normal" font-weight="normal" text-decoration="normal" x="188.77587890624994" y="363.8080000000002" text-anchor="middle" stroke-miterlimit="2" stroke-width="3" stroke-dasharray="">-4</text><text fill="#000000" stroke="none" font-family="Arial" font-size="14px" font-style="normal" font-weight="normal" text-decoration="normal" x="188.77587890624994" y="363.8080000000002" text-anchor="middle">-4</text></g><g class="dcg-svg-axis-value"><text fill="none" stroke="#ffffff" font-family="Arial" font-size="14px" font-style="normal" font-weight="normal" text-decoration="normal" x="188.77587890624994" y="283.8080000000002" text-anchor="middle" stroke-miterlimit="2" stroke-width="3" stroke-dasharray="">-2</text><text fill="#000000" stroke="none" font-family="Arial" font-size="14px" font-style="normal" font-weight="normal" text-decoration="normal" x="188.77587890624994" y="283.8080000000002" text-anchor="middle">-2</text></g><g class="dcg-svg-axis-value"><text fill="none" stroke="#ffffff" font-family="Arial" font-size="14px" font-style="normal" font-weight="normal" text-decoration="normal" x="191.10693359374994" y="123.80800000000023" text-anchor="middle" stroke-miterlimit="2" stroke-width="3" stroke-dasharray="">2</text><text fill="#000000" stroke="none" font-family="Arial" font-size="14px" font-style="normal" font-weight="normal" text-decoration="normal" x="191.10693359374994" y="123.80800000000023" text-anchor="middle">2</text></g><g class="dcg-svg-axis-value"><text fill="none" stroke="#ffffff" font-family="Arial" font-size="14px" font-style="normal" font-weight="normal" text-decoration="normal" x="191.10693359374994" y="43.80800000000023" text-anchor="middle" stroke-miterlimit="2" stroke-width="3" stroke-dasharray="">4</text><text fill="#000000" stroke="none" font-family="Arial" font-size="14px" font-style="normal" font-weight="normal" text-decoration="normal" x="191.10693359374994" y="43.80800000000023" text-anchor="middle">4</text></g></g></g></g><g id="expressions-529e3545"><g id="sketch-529e3545"><title>Expression 16</title><path fill="#388c46" stroke="none" paint-order="stroke fill markers" d="" fill-opacity="0.4"/><path fill="#388c46" stroke="none" class="dcg-svg-region" paint-order="stroke fill markers" d=" M 19.812499999999787 -0.4999999999998863 L 399.4999999999998 -0.4999999999998863 L 399.49999999999994 399.4999999999999 L -0.500000000000071 399.50000000000006 L -0.49999999999982236 -0.4999999999998863 L 19.812499999999787 -0.4999999999998863"/></g><g id="sketch-529e3545"><title>Expression 19</title><path fill="#ffffff" stroke="none" class="dcg-svg-region" paint-order="stroke fill markers" d=" M 253.89999999999992 199.50000000000023 L 253.83129043936728 196.76670909102074 L 253.62533532378265 194.04032271209414 L 253.28265491374242 191.327727951831 L 252.80411484970296 188.63577706001647 L 252.19092396539747 185.97127013823211 L 251.4446312342173 183.34093796220952 L 250.56712185637065 180.7514249793065 L 249.00976480526367 176.95796839396553 L 247.1710833943861 173.2926001288669 L 245.0615253782924 169.77614753765596 L 242.69307768644217 166.4285918054137 L 240.07919831107543 163.26895441157694 L 237.23473983621648 160.31518904609808 L 234.1758650423286 157.58407959299728 L 230.91995506617127 155.09114476098543 L 227.48551063771387 152.85054990306554 L 223.89204695529767 150.87502652617147 L 220.15998279638592 149.1757999482057 L 216.3105244939971 147.76252551354386 L 212.36554543809052 146.64323372944196 L 208.34746178660157 145.82428463509223 L 204.27910509236037 145.31033166261165 L 200.18359256965434 145.1042951953126 L 196.08419573760528 145.20734597350224 L 192.00420818675562 145.6188984421024 L 187.96681322024014 146.3366140778905 L 183.99495212163325 147.356414677455 L 180.11119379799908 148.67250553036052 L 176.33760653885997 150.27740834584876 L 172.69563261977288 152.162003745978 L 169.2059664630425 154.315583083748 L 165.88843704788573 156.72590929176815 L 162.76189523821623 159.37928641571557 L 159.84410666827515 162.26063743747955 L 157.15165079475386 165.3535899457861 L 154.6998266890135 168.64056916750468 L 152.5025661047097 172.10289783101484 L 150.57235431478935 175.72090229418947 L 148.92015916767906 179.4740243339537 L 147.55536876578256 183.34093796220952 L 146.8090760346024 185.97127013823211 L 146.1958851502969 188.63577706001647 L 145.7173450862574 191.327727951831 L 145.3746646762172 194.0403227120941 L 145.16870956063258 196.76670909102074 L 145.09999999999994 199.50000000000023 L 145.16870956063258 202.23329090897965 L 145.3746646762172 204.9596772879063 L 145.7173450862574 207.67227204816936 L 146.1958851502969 210.36422293998396 L 146.8090760346024 213.02872986176834 L 147.55536876578256 215.6590620377909 L 148.43287814362918 218.24857502069398 L 149.9902351947362 222.04203160603487 L 151.82891660561376 225.7073998711335 L 153.93847462170743 229.22385246234444 L 156.30692231355766 232.57140819458675 L 158.92080168892443 235.7310455884235 L 161.76526016378335 238.68481095390234 L 164.82413495767122 241.41592040700314 L 168.08004493382856 243.90885523901503 L 171.51448936228599 246.14945009693486 L 175.10795304470219 248.12497347382896 L 178.84001720361394 249.82420005179472 L 182.6894755060028 251.23747448645656 L 186.63445456190928 252.35676627055847 L 190.65253821339823 253.17571536490823 L 194.7208949076395 253.68966833738878 L 198.81640743034552 253.8957048046878 L 202.91580426239454 253.79265402649818 L 206.99579181324424 253.38110155789803 L 211.03318677975966 252.66338592210994 L 215.00504787836667 251.64358532254545 L 218.88880620200078 250.32749446963987 L 222.66239346113989 248.72259165415167 L 226.30436738022703 246.83799625402239 L 229.79403353695733 244.68441691625245 L 233.11156295211413 242.27409070823228 L 236.23810476178363 239.62071358428489 L 239.1558933317247 236.73936256252088 L 241.848349205246 233.6464100542143 L 244.30017331098637 230.35943083249575 L 246.49743389529016 226.8971021689856 L 248.4276456852105 223.27909770581095 L 250.07984083232077 219.5259756660467 L 251.4446312342173 215.6590620377909 L 252.19092396539745 213.02872986176834 L 252.80411484970296 210.36422293998396 L 253.28265491374242 207.67227204816945 L 253.62533532378265 204.95967728790632 L 253.83129043936728 202.2332909089797 L 253.97999999999993 199.50000000000023 L 273.8999999999999 199.50000000000023 L 273.80602957148767 203.23817727257511 L 273.52435566340864 206.9669115849306 L 273.05568980850074 210.67678383058458 L 272.4012158973879 214.3584225502721 L 271.56258718797005 218.00252760506547 L 270.5419221291502 221.5998936693316 L 269.34179900944815 225.14143348418435 L 267.9652494440206 228.61820081268814 L 266.4157507165379 232.02141303882965 L 264.6972169952634 235.3424733531679 L 262.81398944552495 238.57299246912063 L 260.77082526355485 241.70480981503096 L 258.5728856593989 244.73001414847886 L 256.2257228192516 247.6409635407669 L 253.7352658801529 250.43030468109473 L 251.10780595247257 253.09099145166053 L 246.92434483730244 256.82618526251895 L 242.47140913461658 260.2356402533587 L 237.77430131334395 263.299983220808 L 232.85971127709823 266.0018019568543 L 227.75556470682184 268.3257441884839 L 224.26177411251007 269.6584958704293 L 220.70543312776604 270.814021102893 L 217.09552537856493 271.789400928852 L 213.44116980517776 272.58217145421463 L 209.75159762693687 273.19033007183106 L 206.03612902337514 273.61234052025225 L 202.30414959064296 273.84713676446006 L 198.5650866326784 273.8941256887641 L 194.82838534701887 273.75318859506365 L 191.10348496541275 273.4246815026888 L 187.39979490950049 272.90943424906555 L 183.72667102179895 272.2087483934738 L 180.09339193203152 271.3243939291957 L 176.5091356185037 270.2586048123596 L 172.98295622373416 269.01407331877215 L 169.5237611829035 267.5939432429965 L 164.47962744689926 265.14246724676076 L 159.6344864535626 262.31799765735013 L 155.01586926052056 259.1365836743935 L 150.65001977198 255.61630272676632 L 146.56174561562915 251.77715775303463 L 144.00197878044082 249.05128293710857 L 141.58240476341342 246.20023728002835 L 139.30913561850386 243.23122277056024 L 137.1879138208646 240.15173939702984 L 135.224097760853 236.96956620170084 L 133.42264820827225 233.6927416302389 L 131.78811578103628 230.32954322590058 L 130.32462944991406 226.88846671974028 L 129.03588610839094 223.3782045696566 L 127.92514123399513 219.8076240024892 L 126.99520066467859 216.1857446146342 L 126.24841351102707 212.52171558776075 L 125.68666622220277 208.82479257718444 L 125.31137782061026 205.10431433127843 L 125.12349631732243 201.3696791009845 L 125.12349631732243 197.63032089901586 L 125.31137782061026 193.895685668722 L 125.68666622220277 190.17520742281596 L 126.24841351102707 186.47828441223965 L 126.99520066467859 182.81425538536624 L 127.92514123399516 179.19237599751122 L 129.03588610839097 175.6217954303438 L 130.32462944991406 172.11153328026012 L 131.78811578103628 168.67045677409985 L 133.42264820827225 165.30725836976148 L 135.224097760853 162.03043379829958 L 137.18791382086462 158.84826060297056 L 139.30913561850386 155.7687772294402 L 141.58240476341342 152.79976271997208 L 144.00197878044082 149.94871706289186 L 146.56174561562915 147.22284224696577 L 149.25523907579577 144.62902406855204 L 153.53124478607913 141.00014064903576 L 158.0684541332788 137.7036650998317 L 162.8410857888071 134.75832865258747 L 167.82202070755864 132.18086729652833 L 172.98295622373416 129.98592668122825 L 176.50913561850393 128.74139518764082 L 180.0933919320317 127.67560607080463 L 183.72667102179915 126.7912516065266 L 187.39979490950066 126.09056575093484 L 191.103484965413 125.57531849731163 L 194.8283853470191 125.2468114049368 L 198.5650866326786 125.10587431123628 L 202.30414959064316 125.1528632355404 L 206.0361290233753 125.38765947974821 L 209.7515976269371 125.80966992816934 L 213.44116980517796 126.41782854578582 L 217.09552537856518 127.21059907114852 L 220.70543312776624 128.18597889710747 L 224.26177411251027 129.34150412957115 L 227.75556470682204 130.67425581151656 L 232.85971127709826 132.99819804314615 L 237.77430131334395 135.70001677919248 L 242.47140913461658 138.76435974664167 L 246.92434483730239 142.17381473748145 L 251.10780595247257 145.9090085483399 L 253.73526588015292 148.56969531890576 L 256.22572281925164 151.35903645923355 L 258.5728856593989 154.26998585152154 L 260.7708252635549 157.2951901849695 L 262.81398944552495 160.4270075308798 L 264.6972169952634 163.65752664683257 L 266.4157507165379 166.97858696117078 L 267.9652494440207 170.38179918731237 L 269.34179900944815 173.85856651581614 L 270.5419221291502 177.40010633066882 L 271.5625871879701 180.99747239493502 L 272.4012158973879 184.64157744972832 L 273.05568980850074 188.3232161694159 L 273.52435566340864 192.0330884150698 L 273.80602957148767 195.76182272742537 L 273.8999999999999 199.50000000000023 L 253.89999999999995 199.50000000000023"/><path fill="#ffffff" stroke="none" class="dcg-svg-region" paint-order="stroke fill markers" d=" M 97.57999999999994 199.50000000000023 L 97.30702366337259 204.07452504825258 L 96.51981745314382 208.54004822315443 L 95.29655263793671 212.8323267081742 L 93.72740412513971 216.94565386152863 L 91.88964651356297 220.9173729312393 L 89.84096245140424 224.80416129922756 L 85.2725811120538 232.54956826932855 L 75.17273705865733 249.00282533560278 L 72.64994649709647 253.4264668250876 L 70.20480275654486 257.97823643629204 L 67.87725600059011 262.64779409044047 L 65.70675122397432 267.41870327630556 L 63.7312674861885 272.2689688390974 L 61.98635178607376 277.17160239235017 L 60.50416586937206 282.09525802788784 L 59.31256488497458 287.00498053105434 L 58.43423580006818 291.86310967558074 L 57.88594155368588 296.6303844565405 L 57.67794494706785 301.2672846424167 L 57.81372284000697 305.73562457217804 L 58.29011866816592 310.0003633842132 L 59.098100498737594 314.0315055744112 L 60.22425918184925 317.80583653409263 L 61.653055438887996 321.308099684121 L 63.369584187859786 324.5311496734498 L 65.36231311312751 327.4747164586422 L 67.62501389282542 330.142760370948 L 70.15713930061835 332.5399241461538 L 72.96231907385418 334.6680493325608 L 76.04532040367997 336.5238182931005 L 79.40839387175163 338.09819198509905 L 83.04807957160985 339.3776401321561 L 86.95323845680068 340.3465802607723 L 91.10454094397416 340.99021597023363 L 95.47518930095023 341.2970905811363 L 100.03243039845945 341.26097106238865 L 104.7394147397828 340.88196454156804 L 109.5570749420882 340.1669530294101 L 114.4458368536217 339.1295063232933 L 119.36708771590017 337.78943475411245 L 124.2843952789514 336.17211182603927 L 129.1645067397907 334.3076582380759 L 133.9781694567218 332.230046028291 L 138.70081757069823 329.976158578458 L 147.8017631854139 325.09587323393754 L 156.38630012373008 319.9836273031467 L 172.26580428739112 310.2488019090286 L 176.13237001350603 308.11125743041634 L 180.05412630866664 306.1619404721618 L 184.0902538654346 304.4500760938971 L 188.29051552506252 303.04304716697044 L 192.67367725284237 302.0264933034464 L 197.2052968741558 301.4887799537206 L 201.794703125844 301.4887799537206 L 206.32632274715743 302.0264933034464 L 210.70948447493728 303.0430471669704 L 214.90974613456524 304.4500760938971 L 218.9458736913332 306.1619404721618 L 222.8676299864938 308.1112574304164 L 230.6011059338835 312.53700787756685 L 251.19823681458587 325.09587323393754 L 260.2991824293016 329.97615857845796 L 265.021830543278 332.23004602829104 L 269.8354932602091 334.3076582380759 L 274.71560472104846 336.1721118260393 L 279.63291228409946 337.78943475411256 L 284.55416314637813 339.1295063232933 L 289.44292505791157 340.1669530294101 L 294.260585260217 340.8819645415681 L 298.9675696015404 341.2609710623887 L 303.5248106990497 341.2970905811362 L 307.8954590560258 340.99021597023363 L 312.046761543199 340.34658026077244 L 315.95192042838994 339.37764013215616 L 319.59160612824815 338.0981919850991 L 322.9546795963199 336.5238182931006 L 326.03768092614564 334.6680493325609 L 328.8428606993815 332.5399241461538 L 331.37498610717444 330.14276037094794 L 333.6376868868723 327.47471645864226 L 335.6304158121401 324.53114967344993 L 337.34694456111185 321.30809968412103 L 338.77574081815055 317.80583653409275 L 339.90189950126216 314.0315055744112 L 340.70988133183397 310.0003633842133 L 341.18627715999287 305.73562457217804 L 341.322055052932 301.2672846424167 L 341.11405844631395 296.6303844565405 L 340.56576419993166 291.86310967558063 L 339.68743511502527 287.00498053105457 L 338.4958341306277 282.09525802788795 L 337.01364821392605 277.1716023923502 L 335.26873251381136 272.2689688390974 L 333.2932487760255 267.4187032763056 L 331.12274399940975 262.64779409044047 L 328.79519724345505 257.97823643629204 L 326.3500535029034 253.42646682508766 L 321.26635248433485 244.71099968237226 L 311.37615558429906 228.66446872561096 L 309.1590375485956 224.80416129922756 L 307.1103534864369 220.91737293123938 L 305.27259587486014 216.94565386152868 L 303.7034473620631 212.83232670817432 L 302.48018254685604 208.54004822315449 L 301.6929763366273 204.07452504825267 L 301.41999999999996 199.50000000000023 L 301.6929763366273 194.92547495174784 L 302.48018254685604 190.459951776846 L 303.7034473620631 186.1676732918262 L 305.27259587486014 182.05434613847183 L 307.1103534864369 178.0826270687611 L 309.1590375485956 174.1958387007729 L 313.7274188879461 166.45043173067188 L 323.8272629413425 149.9971746643976 L 326.3500535029034 145.57353317491285 L 328.79519724345505 141.02176356370836 L 331.12274399940975 136.35220590955993 L 333.29324877602556 131.5812967236949 L 335.2687325138114 126.73103116090306 L 337.0136482139261 121.82839760765023 L 338.49583413062777 116.90474197211256 L 339.68743511502527 111.99501946894611 L 340.56576419993166 107.13689032441982 L 341.11405844631395 102.36961554345999 L 341.32205505293206 97.7327153575838 L 341.1862771599929 93.26437542782242 L 340.709881331834 88.99963661578727 L 339.9018995012623 84.96849442558931 L 338.7757408181506 81.1941634659077 L 337.34694456111185 77.69190031587942 L 335.6304158121401 74.46885032655058 L 333.63768688687236 71.52528354135825 L 331.3749861071745 68.85723962905251 L 328.8428606993816 66.46007585384672 L 326.0376809261457 64.33195066743963 L 322.95467959632 62.47618170689992 L 319.5916061282482 60.901808014901405 L 315.95192042839017 59.62235986784435 L 312.0467615431992 58.65341973922807 L 307.89545905602574 58.00978402976682 L 303.5248106990496 57.70290941886418 L 298.9675696015403 57.739028937611806 L 294.2605852602171 58.11803545843236 L 289.4429250579117 58.833046970590374 L 284.5541631463782 59.870493676707156 L 279.6329122840996 61.21056524588789 L 274.71560472104835 62.82788817396124 L 269.8354932602092 64.69234176192458 L 265.02183054327804 66.76995397170936 L 260.29918242930154 69.02384142154239 L 251.19823681458598 73.90412676606292 L 242.61369987626995 79.0163726968537 L 226.73419571260877 88.75119809097174 L 222.86762998649388 90.888742569584 L 218.94587369133328 92.83805952783854 L 214.90974613456527 94.54992390610334 L 210.7094844749373 95.95695283303007 L 206.32632274715755 96.97350669655407 L 201.79470312584408 97.51122004627985 L 197.2052968741559 97.51122004627985 L 192.67367725284242 96.97350669655407 L 188.29051552506263 95.95695283303007 L 184.09025386543465 94.54992390610334 L 180.05412630866667 92.8380595278386 L 176.13237001350606 90.888742569584 L 168.3988940661164 86.46299212243366 L 147.80176318541396 73.90412676606292 L 138.70081757069826 69.02384142154239 L 133.97816945672173 66.76995397170936 L 129.16450673979065 64.69234176192464 L 124.28439527895159 62.82788817396107 L 119.36708771590011 61.210565245888006 L 114.44583685362173 59.870493676706985 L 109.557074942088 58.83304697059043 L 104.73941473978286 58.11803545843236 L 100.03243039845981 57.739028937611636 L 95.47518930095023 57.70290941886424 L 91.10454094397431 58.00978402976665 L 86.9532384568006 58.65341973922813 L 83.04807957160989 59.62235986784418 L 79.40839387175168 60.90180801490135 L 76.04532040368 62.476181706899865 L 72.96231907385425 64.33195066743951 L 70.15713930061835 66.46007585384666 L 67.62501389282565 68.85723962905223 L 65.36231311312744 71.5252835413583 L 63.36958418785996 74.46885032655035 L 61.653055438887975 77.69190031587948 L 60.22425918184937 81.19416346590765 L 59.09810049873761 84.96849442558914 L 58.2901186681659 88.99963661578715 L 57.81372284000706 93.26437542782236 L 57.677944947067886 97.73271535758374 L 57.88594155368595 102.36961554345993 L 58.434235800068144 107.13689032441971 L 59.31256488497465 111.99501946894588 L 60.50416586937204 116.90474197211273 L 61.98635178607381 121.82839760765017 L 63.73126748618847 126.73103116090294 L 65.70675122397432 131.58129672369478 L 67.87725600059014 136.35220590955998 L 70.20480275654488 141.02176356370842 L 72.64994649709654 145.5735331749129 L 77.733647515665 154.28900031762805 L 87.6238444157008 170.33553127438947 L 89.8409624514042 174.1958387007726 L 91.88964651356291 178.08262706876116 L 93.72740412513974 182.05434613847166 L 95.2965526379367 186.16767329182633 L 96.51981745314377 190.45995177684586 L 97.30702366337259 194.92547495174773 L 97.57999999999993 199.50000000000023 L 69.57999999999994 199.50000000000023 L 69.50362652832249 198.2377412077555 L 69.24860167983476 196.8066666944722 L 68.75412338995214 195.08391967781938 L 67.95868042597168 193.00755931616223 L 66.82453342345778 190.56221463326983 L 65.34382355352807 187.75645025844813 L 61.427142732119904 181.1267755692706 L 51.00222175255028 164.1317489359223 L 48.1661145374604 159.1581558259951 L 45.35012581085151 153.91536794437806 L 42.61014587289178 148.4175756011507 L 40.001167119274086 142.68187985415176 L 37.576889093626534 136.7284553741036 L 35.389376440099134 130.58059175801156 L 33.48877116722428 124.26466378468399 L 31.923058923345422 117.8100829404724 L 30.737878614407215 111.24928605492624 L 29.976344984284758 104.61781912260125 L 29.678823877331347 97.95456963913023 L 29.882561239929302 91.30217980293196 L 30.621027202340272 84.7076233986852 L 31.922814968384834 78.22283979880922 L 33.809964385287515 71.90518987350634 L 36.29570320296342 65.81736084762008 L 39.38183697019309 60.02627495297804 L 43.05632722235653 54.600656708227575 L 47.29183368182834 49.60725826524026 L 52.04595895875646 45.10626713913359 L 57.26351227025641 41.14688079600472 L 62.88043360983921 37.764124817491506 L 68.82844291198049 34.97759852475804 L 75.03932316017205 32.79215635124285 L 81.4480546606806 31.19995089882582 L 87.99454957899881 30.183035141156438 L 94.62419049579134 29.715844531069706 L 101.28759616547981 29.76717596185574 L 107.94003812151102 30.301565337866464 L 114.54081463335508 31.280146239638327 L 121.05274895232901 32.66114395055695 L 127.44186831519738 34.40015834346991 L 133.67725173446516 36.45035516562018 L 139.7310009859622 38.76264451445121 L 145.57827772896573 41.28589055803428 L 151.19734936005807 43.96717178574437 L 156.56958959628545 46.75209617280075 L 166.51388069547284 52.410218806303476 L 189.20343066995585 66.12692976608741 L 191.83079638474612 67.43510611845772 L 194.0917182426317 68.3970902104661 L 195.9869776882442 69.0355028317631 L 197.5524222615875 69.40182109085254 L 198.88006368118695 69.56135142150691 L 200.11993631881307 69.56135142150691 L 201.44757773841258 69.40182109085254 L 203.01302231175592 69.03550283176304 L 204.9082817573684 68.39709021046599 L 207.16920361525416 67.43510611845761 L 209.7965693300444 66.12692976608724 L 216.09319995007343 62.51470066009898 L 237.32061731490802 49.58516961280168 L 242.4304104037152 46.75209617280041 L 247.8026506399419 43.96717178574431 L 253.42172227103427 41.285890558034225 L 259.2689990140378 38.76264451445121 L 265.3227482655348 36.45035516562018 L 271.5581316848028 34.400158343470025 L 277.9472510476708 32.661143950556834 L 284.45918536664504 31.280146239638327 L 291.0599618784888 30.301565337866464 L 297.7124038345204 29.767175961855912 L 304.3758095042087 29.715844531069706 L 311.0054504210011 30.183035141156438 L 317.5519453393194 31.199950898825932 L 323.9606768398279 32.79215635124285 L 330.1715570880195 34.97759852475804 L 336.1195663901608 37.76412481749162 L 341.7364877297437 41.14688079600495 L 346.9540410412434 45.10626713913348 L 351.70816631817166 49.607258265240375 L 355.9436727776434 54.60065670822769 L 359.6181630298069 60.02627495297821 L 362.7042967970365 65.81736084762025 L 365.1900356147123 71.90518987350652 L 367.07718503161516 78.22283979880933 L 368.3789727976597 84.70762339868531 L 369.1174387600707 91.30217980293219 L 369.3211761226685 97.95456963913017 L 369.0236550157151 104.6178191226013 L 368.26212138559254 111.24928605492602 L 367.07694107665435 117.81008294047251 L 365.51122883277554 124.26466378468416 L 363.61062355990066 130.58059175801174 L 361.4231109063733 136.72845537410365 L 358.9988328807257 142.68187985415187 L 356.38985412710815 148.41757560115096 L 353.64987418914825 153.91536794437803 L 350.83388546253946 159.15815582599532 L 345.1978863848656 168.82453213341483 L 333.65617644647176 187.75645025844847 L 332.1754665765421 190.56221463326978 L 331.0413195740282 193.00755931616243 L 330.24587661004773 195.08391967781918 L 329.7513983201651 196.80666669447226 L 329.4963734716773 198.23774120775553 L 329.4199999999999 199.50000000000023 L 329.4963734716773 200.76225879224492 L 329.7513983201651 202.19333330552823 L 330.24587661004773 203.91608032218127 L 331.0413195740282 205.99244068383805 L 332.1754665765421 208.4377853667307 L 333.65617644647176 211.24354974155204 L 337.57285726787995 217.87322443072986 L 347.99777824744956 234.86825106407835 L 350.83388546253946 239.8418441740052 L 353.64987418914836 245.0846320556225 L 356.38985412710815 250.58242439884958 L 358.9988328807257 256.31812014584864 L 361.4231109063733 262.27154462589687 L 363.61062355990066 268.4194082419888 L 365.51122883277554 274.73533621531635 L 367.0769410766544 281.189917059528 L 368.26212138559254 287.7507139450745 L 369.0236550157151 294.38218087739915 L 369.3211761226684 301.04543036087034 L 369.1174387600706 307.69782019706827 L 368.37897279765957 314.2923766013152 L 367.07718503161504 320.77716020119124 L 365.1900356147123 327.09481012649405 L 362.7042967970365 333.1826391523803 L 359.61816302980674 338.9737250470223 L 355.94367277764337 344.3993432917728 L 351.7081663181715 349.39274173476014 L 346.95404104124333 353.893732860867 L 341.73648772974354 357.85311920399556 L 336.11956639016074 361.2358751825089 L 330.1715570880193 364.0224014752424 L 323.9606768398278 366.20784364875755 L 317.5519453393193 367.80004910117464 L 311.0054504210011 368.816964858844 L 304.37580950420863 369.2841554689308 L 297.71240383452005 369.23282403814454 L 291.0599618784887 368.69843466213393 L 284.459185366645 367.71985376036207 L 277.9472510476707 366.33885604944356 L 271.55813168480285 364.59984165653043 L 265.3227482655347 362.5496448343802 L 259.2689990140377 360.2373554855492 L 253.42172227103416 357.71410944196623 L 247.80265063994182 355.0328282142561 L 242.4304104037144 352.24790382719965 L 232.48611930452716 346.5897811936969 L 209.79656933004404 332.87307023391304 L 207.1692036152537 331.56489388154273 L 204.90828175736817 330.60290978953435 L 203.01302231175566 329.9644971682373 L 201.44757773841235 329.59817890914786 L 200.1199363188129 329.4386485784935 L 198.8800636811868 329.43864857849354 L 197.5524222615873 329.59817890914786 L 195.986977688244 329.96449716823736 L 194.09171824263143 330.6029097895344 L 191.83079638474572 331.56489388154284 L 189.2034306699554 332.87307023391327 L 182.9068000499264 336.4852993399015 L 161.67938268509187 349.41483038719883 L 156.5695895962847 352.24790382719993 L 151.19734936005722 355.03282821425637 L 145.57827772896502 357.7141094419665 L 139.7310009859621 360.2373554855492 L 133.6772517344651 362.5496448343802 L 127.44186831519693 364.59984165653043 L 121.05274895232904 366.33885604944356 L 114.54081463335484 367.719853760362 L 107.94003812151108 368.6984346621339 L 101.28759616547975 369.2328240381445 L 94.62419049579114 369.2841554689308 L 87.99454957899873 368.81696485884396 L 81.44805466068047 367.8000491011746 L 75.03932316017197 366.20784364875755 L 68.82844291198043 364.0224014752423 L 62.880433609839244 361.23587518250895 L 57.2635122702562 357.8531192039955 L 52.045958958756515 353.89373286086686 L 47.291833681828194 349.39274173475997 L 43.05632722235639 344.3993432917727 L 39.38183697019302 338.9737250470222 L 36.29570320296335 333.18263915238026 L 33.809964385287444 327.094810126494 L 31.9228149683848 320.77716020119124 L 30.621027202340308 314.2923766013152 L 29.882561239929196 307.6978201970682 L 29.678823877331453 301.0454303608702 L 29.976344984284616 294.382180877399 L 30.737878614407215 287.7507139450744 L 31.923058923345458 281.18991705952794 L 33.488771167224314 274.7353362153163 L 35.38937644009917 268.4194082419887 L 37.5768890936265 262.27154462589687 L 40.00116711927416 256.31812014584864 L 42.61014587289179 250.58242439884947 L 45.35012581085156 245.08463205562245 L 48.16611453746037 239.8418441740051 L 53.80211361513418 230.17546786658554 L 65.34382355352807 211.24354974155204 L 66.82453342345778 208.43778536673065 L 67.95868042597168 205.99244068383803 L 68.75412338995216 203.91608032218116 L 69.24860167983476 202.1933333055281 L 69.50362652832249 200.76225879224492 L 69.57999999999993 199.50000000000023 L 97.57999999999993 199.50000000000023"/><path fill="#388c46" stroke="none" class="dcg-svg-region" paint-order="stroke fill markers" d=" M 79.65433502507875 207.6904657541307 L 66.46806358672532 221.82338825299195 L 63.08600833189534 225.68540480556052 L 59.746806217275676 229.69744171176683 L 56.492786941164994 233.85751252868076 L 53.36696540548911 238.15776062518634 L 50.41204343077312 242.5847538471102 L 47.669402981048094 247.11981089016024 L 45.17810061352334 251.73939817943608 L 42.9738731463373 256.4156354378363 L 41.08817149884845 261.11695054523983 L 39.54725433850009 265.80892749233726 L 38.371397274164394 270.4553907175926 L 37.57430737707513 275.01975706425105 L 37.16287272988041 279.4666514962993 L 37.13740888486179 283.76371177417394 L 37.492560840595075 287.8833946939974 L 38.2189409119782 291.80445918450977 L 39.305397591160876 295.51269665186925 L 40.741533975216065 299.00050252920767 L 42.51983070761055 302.26512253981934 L 44.63665586199244 305.3058491476547 L 47.09170331973793 308.12090793569655 L 49.885943170670856 310.70498317336194 L 53.01872399609499 313.04811896032896 L 56.48492767088133 315.1362002334259 L 60.27293121287801 316.95267155858517 L 64.36372609921175 318.4808575026068 L 68.73113674711178 319.70626532258217 L 73.34283574528453 320.6184599695 L 78.16179709598298 321.21234424025215 L 83.14789278375072 321.48885476334425 L 88.25944260209266 321.45517440237427 L 93.45462137369067 321.1245843569716 L 98.69269280191399 320.5160656303739 L 103.93507621221711 319.65373343249746 L 109.1462697250895 318.5661627733125 L 114.29465956525678 317.2856443908319 L 119.35324658931611 315.84739850106547 L 129.12012117637408 312.64842817017063 L 142.7618557630327 307.6288384351348 L 151.26282145292862 304.58674515907256 L 155.4095431610874 303.27420730322103 L 159.5403706146679 302.15988348697215 L 163.69916685285756 301.2991735316707 L 167.91994676359772 300.76045796819926 L 172.20883421108894 300.6218804198977 L 176.52758030539457 300.95508323751005 L 180.79530198182746 301.79776139546914 L 184.91867390822586 303.1334367202119 L 188.8339080646098 304.8986490643016 L 192.52926072657772 307.0125409720629 L 196.0379317823987 309.4039921562127 L 199.41683306201134 312.02163557411154 L 206.02871981108797 317.80431750040026 L 223.73575721881178 334.2257287359691 L 231.75932973533875 340.8935352757591 L 235.99082682277555 344.0888365294802 L 240.3564628647773 347.13448714426806 L 244.840136812885 349.98831925860566 L 249.4206857365917 352.6099883371726 L 254.07233117649344 354.9619746340147 L 258.76525406192945 357.010566274326 L 263.46634051412303 358.7268007327237 L 268.140142945092 360.08732228982143 L 272.750095797671 361.07508385410233 L 277.2600033251837 361.6797835814544 L 281.635765237898 361.8978881616912 L 285.847214028452 361.7320757853519 L 289.869808533594 361.18996736619425 L 293.6857971581351 360.2821441894743 L 297.2844102529058 359.0196879186916 L 300.6607656778688 357.41176803612154 L 303.81352404082133 355.4639935044895 L 306.7418155009658 353.1781608791509 L 309.4423302541187 350.5536088898184 L 311.9074687267131 347.58979801753827 L 314.12504485798354 344.2892942445529 L 316.0794548889206 340.6602828260697 L 317.7537818636925 336.71804335793837 L 319.13217399214125 332.4852535496418 L 320.20196878900424 327.9913272078461 L 320.9552783277222 323.2711373653091 L 321.38996842016985 318.36346090368295 L 321.5100976181212 313.3093880803993 L 321.32593438776365 308.15083682204295 L 320.85367172725273 302.92923122996524 L 320.1149363487676 297.6843534994732 L 319.13616276159445 292.45335246379346 L 317.94788004305497 287.269881208383 L 316.5839436818611 282.1633330562282 L 315.0807369080169 277.15814467500616 L 311.8098757604982 267.5208429393632 L 303.9087295079424 245.6590764067084 L 302.6890864536242 241.525854569655 L 301.69386926344447 237.38627270394903 L 300.98479603435726 233.19946264979407 L 300.6362275112966 228.9428869383641 L 300.72602097736046 224.63124761619179 L 301.3124246872259 220.32612381142275 L 302.40713324497204 216.11986845745957 L 303.9673862806073 212.09569901174402 L 305.9168892109227 208.2921841887378 L 308.17724668238105 204.69632542620823 L 310.6870231460626 201.2603165360275 L 313.4039160962004 197.92283870909222 L 319.3456649749211 191.3095342458697 L 332.53193641327454 177.1766117470085 L 335.9139916681046 173.31459519443993 L 339.25319378272417 169.30255828823368 L 342.50721305883496 165.14248747131978 L 345.6330345945109 160.8422393748141 L 348.5879565692268 156.41524615289023 L 351.33059701895183 151.88018910984013 L 353.82189938647645 147.26060182056426 L 356.02612685366256 142.584364562164 L 357.9118285011514 137.88304945476062 L 359.45274566149976 133.19107250766308 L 360.62860272583544 128.54460928240775 L 361.42569262292477 123.9802429357494 L 361.8371272701195 119.53334850370118 L 361.8625911151382 115.23628822582646 L 361.5074391594048 111.11660530600301 L 360.7810590880217 107.19554081549069 L 359.6946024088391 103.48730334813132 L 358.25846602478373 99.99949747079279 L 356.4801692923893 96.73487746018117 L 354.3633441380074 93.69415085234567 L 351.90829668026197 90.8790920643039 L 349.11405682932906 88.29501682663852 L 345.9812760039048 85.95188103967143 L 342.51507232911854 83.86379976657457 L 338.7270687871219 82.04732844141523 L 334.63627390078807 80.51914249739372 L 330.2688632528882 79.29373467741829 L 325.6571642547154 78.38154003050045 L 320.83820290401684 77.7876557597483 L 315.8521072162491 77.51114523665615 L 310.74055739790714 77.54482559762624 L 305.54537862630934 77.87541564302899 L 300.3073071980859 78.48393436962658 L 295.06492378778273 79.34626656750311 L 289.85373027491033 80.43383722668796 L 284.70534043474294 81.71435560916859 L 279.64675341068374 83.15260149893493 L 269.8798788236258 86.35157182982982 L 256.2381442369671 91.3711615648657 L 247.73717854707112 94.41325484092789 L 243.5904568389123 95.72579269677948 L 239.45962938533197 96.8401165130283 L 235.30083314714244 97.7008264683297 L 231.08005323640228 98.2395420318012 L 226.79116578891094 98.37811958010275 L 222.47241969460532 98.0449167624904 L 218.20469801817237 97.20223860453132 L 214.08132609177403 95.86656327978858 L 210.16609193539009 94.1013509356988 L 206.47073927342214 91.98745902793758 L 202.96206821760117 89.59600784378767 L 199.58316693798855 86.9783644258888 L 192.97128018891192 81.19568249960014 L 175.26424278118807 64.77427126403131 L 167.2406702646611 58.10646472424122 L 163.00917317722434 54.91116347052031 L 158.64353713522272 51.865512855732334 L 154.15986318711475 49.01168074139491 L 149.57931426340815 46.3900116628277 L 144.92766882350614 44.03802536598573 L 140.23474593807038 41.98943372567447 L 135.53365948587683 40.27319926727671 L 130.85985705490785 38.91267771017891 L 126.24990420232874 37.92491614589812 L 121.73999667481606 37.320216418546124 L 117.36423476210204 37.10211183830927 L 113.15278597154756 37.26792421464859 L 109.13019146640592 37.81003263380609 L 105.31420284186451 38.7178558105262 L 101.71558974709413 39.980312081308796 L 98.3392343221313 41.588231963878684 L 95.18647595917855 43.53600649551095 L 92.25818449903431 45.82183912084929 L 89.55766974588087 48.44639111018222 L 87.09253127328677 51.41020198246207 L 84.87495514201629 54.71070575544752 L 82.92054511107924 58.339717173930694 L 81.24621813630735 62.281956642062084 L 79.86782600785867 66.51474645035859 L 78.79803121099576 71.00867279215402 L 78.04472167227749 75.72886263469138 L 77.61003157983015 80.63653909631734 L 77.48990238187854 85.69061191960122 L 77.67406561223623 90.84916317795751 L 78.14632827274704 96.07076877003516 L 78.88506365123224 101.31564650052724 L 79.86383723840541 106.54664753620693 L 81.05211995694494 111.73011879161737 L 82.41605631813879 116.83666694377223 L 83.91926309198286 121.84185532499419 L 87.19012423950159 131.47915706063748 L 95.0912704920575 153.34092359329202 L 96.31091354637566 157.47414543034557 L 97.30613073655537 161.61372729605145 L 98.0152039656426 165.80053735020624 L 98.3637724887032 170.05711306163627 L 98.27397902263937 174.3687523838086 L 97.68757531277393 178.67387618857762 L 96.59286675502783 182.88013154254085 L 95.0326137193926 186.90430098825618 L 93.08311078907715 190.7078158112627 L 90.82275331761886 194.30367457379208 L 88.31297685393724 197.73968346397317 L 85.59608390379954 201.07716129090818 L 79.65433502507875 207.6904657541307 L 62.11395068146584 191.3095342458697 L 67.30240419921292 185.54199850238243 L 69.34969382521895 183.0293504707087 L 71.00111650896423 180.77212942086192 L 72.26015791386672 178.7744745542314 L 73.16045282974238 177.0245956274038 L 73.76396139340247 175.4746551912214 L 74.14208927377265 174.02521109124106 L 74.34426383220203 172.53334210145934 L 74.37685197774262 170.84935317729398 L 74.21073191261304 168.85784176366212 L 73.80774535287433 166.49490383045435 L 73.14315573275945 163.73952633573526 L 72.21400222181131 160.5956183829569 L 69.6444614451413 153.20240745073653 L 64.60636569214344 139.6015858768614 L 62.805570041016566 134.4656985961288 L 61.03036014671345 129.0597582033958 L 59.33254754011746 123.40565640144428 L 57.76297576090836 117.52802898549083 L 56.37099182281408 111.45441834168719 L 55.20400027629988 105.2152923091158 L 54.30708752622881 98.84396198896968 L 53.722710341575926 92.3764420322006 L 53.49044030728696 85.8512983541155 L 53.64674621421143 79.30952949351519 L 54.2247789755826 72.79452626573726 L 55.25409891382827 66.35214490257869 L 56.76025612660726 60.03090390268011 L 58.76411002465972 53.88226528724533 L 61.2807725061483 47.96088093825938 L 64.31810910249203 42.324581224049666 L 67.87486293213533 37.03378992904942 L 71.93868123207521 32.150034347077735 L 76.48456520194925 27.733363942697167 L 81.47439532689552 23.83882789719962 L 86.85805011093682 20.512596526041477 L 92.57619195488066 17.788615255791285 L 98.56421119063734 15.686624564490558 L 104.75641512596643 14.211937784352585 L 111.08955162870285 13.356774847742201 L 117.50512606555384 13.102525391026347 L 123.9504551765604 13.422227523827985 L 130.37875361083636 14.282737681089316 L 136.74867339670783 15.646353503451564 L 143.02366301565965 17.471886868121942 L 149.17138226522724 19.715311270319773 L 155.16328079442866 22.33014090939446 L 160.97435742437722 25.267677716039543 L 166.5830673099883 28.477221914305517 L 171.97132381287557 31.906301892496003 L 177.12453886978483 35.50094834123098 L 182.03164989578755 39.2060170694474 L 186.68508678732675 42.96555323085937 L 195.21715950194186 50.42254038634144 L 214.7457961434087 68.37474446688782 L 219.25899632680307 71.67833591696478 L 221.12954234635384 72.75181335086256 L 222.7704248336592 73.49471572412676 L 224.2543932875843 73.977226502333 L 225.70567474449345 74.26370439258858 L 227.276264750094 74.38302260180609 L 229.1027708188667 74.32113166987904 L 231.27508826600072 74.04087342205418 L 233.83359299068982 73.50885605658999 L 236.78463611885093 72.71099736146562 L 243.81645316827235 70.365471475616 L 267.2048219476614 61.911512820125665 L 272.7377452357382 60.16857212985923 L 278.5068690613232 58.52860669668149 L 284.48611468243394 57.04177227184914 L 290.64647202016863 55.75649581878076 L 296.9560367015414 54.719065633212495 L 303.38012652725496 53.973288471006356 L 309.8814331930256 53.56020749350404 L 316.4201635449423 53.51786884497869 L 322.95412432563194 53.88111112156287 L 329.43870908516396 54.68133077624901 L 335.82676204634186 55.94614891353831 L 342.06832986489223 57.698876413352764 L 348.1103767686967 59.95765820116685 L 353.89663252685824 62.73419760597466 L 359.36784740186465 66.03204905726449 L 364.4627927051714 69.8446426566216 L 369.1202899798113 74.15344449369343 L 373.28230875811016 78.92686343375385 L 376.89776544770905 84.12052978627139 L 379.92625338792874 89.67927505140983 L 382.3407898532677 95.54059369999408 L 384.1289286186783 101.63883420280746 L 385.29214527614687 107.90915227591643 L 385.8439468651011 114.29046773877718 L 385.8074190095433 120.72712986011078 L 385.21285381694065 127.16943755663783 L 384.09584077859404 133.57340020818344 L 382.49592899485117 139.90014858902907 L 380.4557863275036 146.1153010011879 L 378.0207053146322 152.18845318754921 L 375.23830475087925 158.0928491066809 L 372.15831019157235 163.80522009508505 L 368.83233853476577 169.30574648582387 L 365.3136476229009 174.57808557469443 L 361.65683740080226 179.60941138628988 L 357.9175050547292 184.39041714036077 L 354.15186442696364 188.91523611818616 L 346.7671458278907 197.18865975944487 L 331.697595800787 213.458001497618 L 329.6503061747809 215.9706495292919 L 327.99888349103566 218.2278705791384 L 326.7398420861331 220.2255254457691 L 325.8395471702575 221.97540437259642 L 325.23603860659745 223.525344808779 L 324.8579107262272 224.97478890875934 L 324.65573616779784 226.4666578985411 L 324.6231480222572 228.15064682270645 L 324.78926808738674 230.1421582363383 L 325.1922546471254 232.50509616954625 L 325.8568442672404 235.26047366426502 L 326.7859977781885 238.40438161704364 L 329.35553855485847 245.79759254926387 L 334.39363430785636 259.398414123139 L 336.1944299589832 264.53430140387155 L 337.96963985328625 269.9402417966048 L 339.6674524598825 275.5943435985561 L 341.2370242390914 281.47197101450973 L 342.6290081771858 287.5455816583131 L 343.79599972369994 293.7847076908846 L 344.6929124737711 300.1560380110308 L 345.27728965842397 306.6235579677998 L 345.5095596927129 313.1487016458849 L 345.3532537857884 319.6904705064852 L 344.7752210244172 326.205473734263 L 343.7459010861716 332.64785509742177 L 342.2397438733925 338.9690960973204 L 340.23588997534034 345.11773471275495 L 337.7192274938516 351.0391190617409 L 334.68189089750786 356.6754187759508 L 331.12513706786456 361.966210070951 L 327.06131876792466 366.8499656529227 L 322.5154347980506 371.26663605730323 L 317.52560467310434 375.1611721028007 L 312.141949889063 378.4874034739589 L 306.4238080451191 381.21138474420917 L 300.4357888093627 383.31337543550967 L 294.2435848740333 384.78806221564787 L 287.9104483712974 385.64322515225814 L 281.494873934446 385.89747460897405 L 275.0495448234395 385.5777724761724 L 268.6212463891635 384.7172623189111 L 262.25132660329206 383.35364649654895 L 255.9763369843402 381.52811313187846 L 249.82861773477248 379.2846887296806 L 243.8367192055714 376.66985909060594 L 238.02564257562253 373.73232228396097 L 232.4169326900119 370.52277808569494 L 227.0286761871243 367.09369810750434 L 221.875461130215 363.49905165876936 L 216.96835010421233 359.793982930553 L 212.3149132126731 356.0344467691411 L 203.782840498058 348.57745961365896 L 184.25420385659112 330.6252555331126 L 179.74100367319676 327.3216640830357 L 177.87045765364593 326.2481866491379 L 176.22957516634062 325.5052842758737 L 174.7456067124156 325.0227734976674 L 173.29432525550644 324.7362956074119 L 171.72373524990599 324.6169773981943 L 169.89722918113318 324.6788683301214 L 167.7249117339992 324.9591265779462 L 165.16640700931003 325.49114394341046 L 162.21536388114893 326.2890026385348 L 155.18354683172709 328.63452852438456 L 131.79517805233846 337.08848717987473 L 126.26225476426175 338.83142787014117 L 120.49313093867686 340.47139330331896 L 114.5138853175659 341.9582277281514 L 108.35352797983124 343.2435041812196 L 102.04396329845846 344.28093436678796 L 95.61987347274494 345.02671152899404 L 89.11856680697426 345.4397925064964 L 82.57983645505783 345.4821311550219 L 76.04587567436792 345.11888887843764 L 69.56129091483598 344.3186692237514 L 63.173237953657974 343.05385108646203 L 56.93167013510762 341.3011235866475 L 50.88962323130318 339.0423417988336 L 45.10336747314162 336.26580239402574 L 39.632152598135264 332.967950942736 L 34.537207294828505 329.1553573433789 L 29.879710020188604 324.8465555063071 L 25.71769124188976 320.0731365662466 L 22.10223455229081 314.87947021372906 L 19.073746612071012 309.3207249485905 L 16.659210146732065 303.4594063000063 L 14.871071381321606 297.361165797193 L 13.707854723852975 291.09084772408397 L 13.156053134898833 284.7095322612232 L 13.192580990456591 278.27287013988973 L 13.78714618305925 271.83056244336274 L 14.904159221405926 265.42659979181695 L 16.50407100514873 259.0998514109714 L 18.544213672496255 252.88469899881258 L 20.979294685367734 246.81154681245116 L 23.76169524912055 240.90715089331948 L 26.841689808427567 235.19477990491538 L 30.167661465234097 229.69425351417658 L 33.68635237709907 224.42191442530608 L 37.343162599197626 219.39058861371066 L 41.08249494527073 214.60958285963972 L 44.848135573036274 210.08476388181424 L 52.23285417210916 201.81134024055552 L 62.11395068146584 191.3095342458697 L 79.65433502507875 207.6904657541307"/></g><g id="sketch-529e3545"><title>Expression 21</title><path fill="#ffffff" stroke="none" paint-order="stroke fill markers" d="" fill-opacity="0.4"/><path fill="#ffffff" stroke="none" class="dcg-svg-region" paint-order="stroke fill markers" d=" M -3 403 L -3 -3 L 403 -3 L 403 403 M 72.9375 4.092086052530533 L 70.78193874754672 4.7805612524532535 L 63.67660584548911 7.426605845489121 L 58.674225821691664 9.65625 L 51.84375 13.235770587466618 L 44.8125 17.640949774592684 L 41.494151261753494 20.005848738246527 L 36.784545051209506 23.71875 L 29.180169942329684 30.75 L 22.89574528890985 37.78125 L 20.005848738246257 41.494151261753814 L 16.6875 46.2323018724087 L 13.23576713735364 51.84375 L 11.957306171583795 54.14480617158381 L 9.560608537319808 58.875 L 6.532428536229176 65.90625 L 4.0920851248214944 72.9375 L 3.752435460466657 74.06493546046664 L 2.197086676665279 79.96875 L 0.8172361409399613 87 L 0.4979769028716845 89.12702309712836 L -0.06805865136708178 94.03125 L -0.35861051277552747 98.0788894872245 L -0.500000000000071 104.18750000000006 L -0.47143162121126636 297.9375 L -0.358610512775563 300.92111051277556 L -0.06805865136715283 304.96875 L 0.8172361409398547 312 L 1.0778363351509483 313.54716366484905 L 2.625 320.80282851123525 L 4.092085124821388 326.0625 L 4.78056125245282 328.2180612524528 L 7.426605845488837 335.32339415451116 L 9.65625 340.32576471264827 L 13.235767137353392 347.15625 L 17.64094617826946 354.1875 L 20.005848738245014 357.505848738245 L 23.71875 362.2154530287374 L 30.75 369.81982432077837 L 37.78125 376.1042473689775 L 41.49415126175515 378.9941512617552 L 46.23229906107867 382.3125 L 54.14480617158358 387.04269382841636 L 58.875000000000014 389.439390696228 L 65.90625 392.4675697005749 L 72.9375 394.9079139474699 L 78.19715744170662 396.375 L 79.96875 396.80291316296183 L 87 398.1827635227953 L 89.12702309712856 398.50202309712853 L 94.03125 399.06805853370247 L 101.0625 399.4714316182744 L 118.25000000000021 399.50000000000017 L 297.9375 399.4714316182744 L 300.92111051277567 399.3586105127757 L 304.96875 399.06805853370247 L 312 398.1827635227953 L 313.54716366484917 397.92216366484917 L 320.80284255829315 396.375 L 328.2180612524527 394.21943874754726 L 335.32339415451116 391.57339415451116 L 340.3257741783091 389.34375 L 347.15625 385.7642294125337 L 354.1875 381.3590502254076 L 357.5058487382453 378.9941512617547 L 362.2154549487908 375.28125 L 369.81983005767063 368.25 L 376.10425471109033 361.21875 L 378.99415126175444 357.50584873824556 L 382.3125 352.76769812759153 L 385.76423286264645 347.15625 L 387.0426938284163 344.85519382841625 L 389.43939146268025 340.125 L 392.4675714637708 333.09375 L 394.9079148751785 326.0625 L 395.24756453953336 324.93506453953336 L 396.8029133233347 319.03125 L 398.18276385906 312 L 398.50202309712824 309.87297690287176 L 399.068058651367 304.96875 L 399.3586105127754 300.9211105127754 L 399.49999999999994 294.81250000000006 L 399.47143162121114 101.0625 L 399.3586105127754 98.07888948722461 L 399.068058651367 94.03125 L 398.18276385905983 87 L 397.9221636648489 85.45283633515112 L 396.375 78.19717148876566 L 394.90791487517834 72.9375 L 394.2194387475468 70.7819387475468 L 391.5733941545109 63.67660584548912 L 389.34375 58.67423528735242 L 385.7642328626463 51.84375 L 381.35905382173013 44.8125 L 378.99415126175325 41.494151261753245 L 375.28125 36.78454697126324 L 368.25 29.180175679222202 L 361.21875 22.895752631023015 L 357.50584873824704 20.00584873824704 L 352.7677009389205 16.6875 L 344.8551938284161 11.957306171583923 L 340.125 9.560609303772537 L 333.09375 6.532430299425528 L 326.0625 4.09208605253059 L 320.80284255829156 2.625 L 319.03125 2.1970868370386825 L 312 0.8172364772051424 L 309.872976902872 0.49797690287198293 L 304.96875 -0.06805853370201476 L 297.9375 -0.47143161827398217 L 280.7500000000002 -0.4999999999998863 L 101.06249999999999 -0.47143161827398217 L 98.0788894872247 -0.3586105127752717 L 94.03125 -0.06805853370201476 L 87 0.8172364772050287 L 85.45283633515118 1.0778363351512326 L 78.19715744170838 2.625 L 72.9375 4.092086052530533"/></g></g><g id="labels-529e3545"/></g></svg>