<?xml version="1.0" encoding="UTF-8" standalone="no"?>
<!-- Created with Inkscape (http://www.inkscape.org/) -->

<svg
   width="1024"
   height="1024"
   viewBox="0 0 270.93333 270.93334"
   version="1.1"
   id="svg5"
   inkscape:version="1.1.1 (1:1.1+202109281949+c3084ef5ed)"
   sodipodi:docname="logo.svg"
   xmlns:inkscape="http://www.inkscape.org/namespaces/inkscape"
   xmlns:sodipodi="http://sodipodi.sourceforge.net/DTD/sodipodi-0.dtd"
   xmlns="http://www.w3.org/2000/svg"
   xmlns:svg="http://www.w3.org/2000/svg">
  <sodipodi:namedview
     id="namedview7"
     pagecolor="#ffffff"
     bordercolor="#666666"
     borderopacity="1.0"
     inkscape:pageshadow="2"
     inkscape:pageopacity="0.0"
     inkscape:pagecheckerboard="0"
     inkscape:document-units="px"
     showgrid="false"
     units="px"
     width="793.70081px"
     inkscape:zoom="0.6405233"
     inkscape:cx="423.87217"
     inkscape:cy="590.14247"
     inkscape:window-width="1920"
     inkscape:window-height="1043"
     inkscape:window-x="0"
     inkscape:window-y="0"
     inkscape:window-maximized="1"
     inkscape:current-layer="layer1" />
  <defs
     id="defs2" />
  <g
     inkscape:label="Layer 1"
     inkscape:groupmode="layer"
     id="layer1">
    <ellipse
       style="fill:#fff;stroke:none"
       id="white-disc"
       cx="135.466665"
       cy="135.466665"
       rx="135.466665"
       ry="135.466665" />
    <g
       transform="matrix(0.26458333,0,0,0.26458333,0.79374999,0.79374999)"
       id="g1013">
      <g
         id="background-16242387" />
      <g
         id="background-images-16242387" />
      <g
         id="graphpaper-16242387">
        <g
           id="axis-16242387">
          <g
             id="g983">
            <g
               id="g981">
              <path
                 fill="none"
                 stroke="#000000"
                 class="dcg-svg-tickmark"
                 paint-order="fill stroke markers"
                 d=""
                 stroke-opacity="0.9"
                 stroke-miterlimit="2"
                 stroke-width="1.5"
                 stroke-dasharray="none"
                 id="path979" />
            </g>
          </g>
        </g>
      </g>
      <g
         id="expressions-16242387" />
      <path
         style="fill:#388c46;fill-opacity:1;stroke-width:1.2835;stroke-miterlimit:4;stroke-dasharray:none"
         d="m 240.06116,1020.139 c -25.27056,-2.1216 -60.7152,-10.9583 -82.99996,-20.69282 -16.35778,-7.1455 -39.23358,-20.4014 -53.57837,-31.0472 C 87.614334,956.62237 62.331321,931.78753 51.154344,916.9981 28.978861,887.65538 12.923167,854.41152 4.3914863,820.17399 -3.5945401,788.12617 -3.2366098,803.93569 -2.8236193,501.488 L -2.4471194,225.7637 1.0525952,210.07599 C 7.9197331,179.29357 20.664257,146.93028 35.276341,123.16861 55.64446,90.04669 88.198952,57.171679 120.73156,36.872033 153.52423,16.410111 192.46993,2.6340135 230.18124,-1.84314 c 8.77897,-1.0422553 88.59915,-1.3372505 285.89503,-1.056596 l 273.71564,0.389362 16.02551,3.541784 c 40.06803,8.8554026 64.86328,19.306348 98.18184,41.382661 52.5353,34.808988 92.57566,91.876399 108.29194,154.342829 8.6517,34.38694 8.0992,15.29743 8.5962,297.03647 0.3008,170.465 -7e-4,262.23148 -0.908,276.36551 -4.284,66.74032 -30.73205,125.86714 -76.88987,171.89381 -42.43713,42.31657 -88.32567,65.59871 -150.73353,76.47651 -11.8802,2.0708 -32.1416,2.2503 -276.27973,2.4492 -144.90263,0.118 -269.10942,-0.2597 -276.01511,-0.8394 z m 54.86312,-121.79109 c 39.08417,-3.70027 84.19936,-19.09041 125.95165,-42.96593 12.50144,-7.14879 45.62648,-27.09517 57.97296,-34.90867 l 3.15691,-1.99785 -7.64043,-6.83564 c -4.20222,-3.75961 -11.10354,-8.70821 -15.33628,-10.9969 -13.74958,-7.43457 -20.7781,-6.19479 -73.12559,12.8987 -65.38964,23.85057 -98.91306,30.64661 -144.73184,29.34082 -26.12269,-0.74449 -39.73024,-2.90023 -59.21527,-9.38103 -13.39754,-4.45606 -33.69714,-14.92707 -43.86945,-22.62885 -4.51363,-3.41742 -8.42322,-5.99679 -8.68798,-5.73195 -0.26477,0.26484 2.01936,5.38395 5.07581,11.3758 20.76666,40.71066 52.75093,66.04202 97.83008,77.48084 20.27612,5.14506 39.85804,6.50556 62.61943,4.35066 z M 826.97109,876.8939 c 21.93984,-13.14301 38.55019,-30.43287 52.43799,-54.58318 14.50761,-25.22812 21.8139,-63.06953 18.78766,-97.30679 -4.43053,-50.12471 -19.55624,-90.3356 -57.87984,-153.87055 -24.4786,-40.58197 -21.37266,-36.33189 -24.49964,-33.52448 -1.441,1.29374 -5.0641,5.52629 -8.05132,9.40567 -14.74195,19.14476 -14.99133,24.88863 -2.62408,60.43871 26.02205,74.8012 29.04867,84.9905 34.80654,117.17903 3.28925,18.38801 3.35196,66.80841 0.10885,83.99973 -4.77772,25.32578 -16.00542,52.40253 -28.79112,69.43275 -3.70189,4.93082 -6.73071,9.18386 -6.73071,9.45121 0,0.95068 14.8667,-6.08791 22.43571,-10.6221 z m -109.7867,-4.30495 c 16.30608,-3.86885 34.57224,-15.88763 44.18244,-29.07117 5.00271,-6.86284 11.72203,-19.31927 10.87719,-20.16437 -0.30993,-0.31003 -5.43068,0.36179 -11.37944,1.49294 -12.87333,2.44787 -34.73444,1.82204 -50.55918,-1.44738 -29.50251,-6.09525 -62.28541,-20.68489 -103.84528,-46.21515 -48.68333,-29.9062 -65.04143,-37.45506 -87.80378,-40.51935 -10.88289,-1.46505 -24.62683,-0.29172 -35.91312,3.06593 l -5.76919,1.71632 10.44841,5.45509 c 12.11568,6.32555 26.27611,17.76621 54.9075,44.36151 45.46732,42.23392 71.64906,60.65711 104.51446,73.54323 24.40583,9.56921 50.59617,12.46691 70.33999,7.7824 z m -522.9255,-100.1858 c -0.0138,-0.17634 -0.85913,-4.93739 -1.87834,-10.58012 -4.60558,-25.49822 -0.31465,-55.67236 12.66112,-89.03408 6.90675,-17.75775 19.87483,-42.12386 38.61411,-72.55318 26.55238,-43.11641 33.81902,-59.24147 36.56356,-81.13644 1.42748,-11.38785 0.0455,-28.03285 -3.07431,-37.02856 l -1.71642,-4.94911 -3.54116,7.05342 c -7.93914,15.81353 -15.09476,24.82862 -46.83437,59.0049 -34.12629,36.74618 -50.43004,58.05708 -62.70726,81.96571 -13.99498,27.25383 -19.57025,46.83481 -19.74572,69.34931 -0.13135,16.85135 1.77806,25.91626 8.37402,39.7556 6.45842,13.55076 18.88009,26.43896 32.41264,33.62998 8.06371,4.28494 10.94782,5.48467 10.87213,4.52257 z M 540.48536,677.8289 c 81.75915,-15.54721 139.92248,-85.91707 139.92248,-169.28749 0,-95.86841 -76.20721,-172.11681 -172.02381,-172.11681 -66.67389,0 -126.27454,37.29772 -155.15357,97.09415 -19.41553,40.20148 -22.45039,87.2647 -8.35569,129.57663 27.23704,81.76499 110.9068,130.8407 195.61059,114.73352 z m -49.40888,-50.14933 c -24.45709,-3.49198 -47.58631,-14.99491 -66.30134,-32.97385 -19.7595,-18.98231 -31.9747,-43.46237 -35.71453,-71.57429 -3.55862,-26.74975 3.67086,-57.88099 18.72673,-80.63996 10.77171,-16.28293 29.82582,-33.16937 47.39201,-42.00055 30.56063,-15.36398 68.98571,-16.07187 101.81122,-1.87562 24.53124,10.60917 47.04903,32.10152 59.41041,56.70491 9.39731,18.7039 13.95075,44.82635 11.48226,65.87229 -3.40459,29.02701 -15.61324,54.03367 -35.89033,73.51322 -27.46137,26.38128 -63.83969,38.26767 -100.91643,32.97385 z m 253.97049,-95.09244 c 7.74053,-15.44262 15.07645,-24.66743 46.668,-58.68429 34.12629,-36.74618 50.43004,-58.05708 62.70726,-81.96571 13.99498,-27.25383 19.57026,-46.83481 19.74573,-69.34932 0.13135,-16.85134 -1.77806,-25.91625 -8.37403,-39.75559 -6.5841,-13.81446 -18.90015,-26.49216 -32.82739,-33.79135 -5.16397,-2.7064 -9.60834,-4.70138 -9.87638,-4.43326 -0.26804,0.26812 0.33116,5.08293 1.33155,10.69959 4.55341,25.5649 0.25586,55.68818 -12.69533,88.98667 -6.90675,17.75775 -19.87483,42.12386 -38.6141,72.55318 -18.86915,30.64016 -28.30455,48.57487 -32.40498,61.59491 -4.20193,13.34234 -5.73054,28.11694 -4.18485,40.44791 1.1893,9.48786 3.72441,20.43007 4.73325,20.43007 0.22908,0 1.93514,-3.02977 3.79127,-6.73281 z M 209.00211,470.06825 c 14.55452,-18.90136 14.90241,-25.0726 3.29701,-58.48579 -21.71102,-62.50836 -25.92934,-75.45457 -29.41534,-90.27708 -7.57118,-32.19269 -8.39374,-39.30335 -8.38187,-72.45779 0.0102,-26.97354 0.36243,-32.3938 2.85357,-43.84453 6.07863,-27.94088 19.38277,-57.47849 32.08788,-71.24095 1.78387,-1.93233 2.98125,-3.77556 2.66084,-4.09608 -0.89029,-0.89056 -21.33177,9.54516 -29.99742,15.31418 -9.90148,6.59173 -24.79159,20.73593 -32.18057,30.5685 -45.72176,60.84228 -42.45108,147.52079 9.08458,240.75613 5.9113,10.6944 27.6063,46.93297 37.43363,62.52786 1.83915,2.91852 1.95197,2.93456 4.50638,0.64122 1.44099,-1.29374 5.0641,-5.52629 8.05131,-9.40567 z m 310.92028,-189.7947 c 4.5833,-0.67399 10.9294,-1.99313 14.10245,-2.93144 l 5.76918,-1.70602 -10.44841,-5.45508 c -12.07778,-6.30577 -26.27764,-17.76756 -54.56608,-44.04452 -40.10551,-37.25374 -60.00452,-52.22265 -87.34907,-65.70783 -26.77843,-13.20598 -42.88532,-17.5798 -65.58332,-17.80918 -16.6506,-0.16826 -24.52543,1.50325 -38.56965,8.18677 -11.25922,5.35815 -20.97302,13.28871 -27.87627,22.75879 -5.0027,6.86284 -11.72203,19.31927 -10.87719,20.16437 0.30993,0.31003 5.43068,-0.36179 11.37944,-1.49294 12.87333,-2.44787 34.73444,-1.82204 50.55918,1.44738 29.50252,6.09525 62.28541,20.68489 103.84528,46.21515 36.07016,22.15791 51.80579,30.60335 65.45763,35.13162 18.29451,6.06824 29.49826,7.3985 44.15683,5.24293 z m 87.81977,-68.81051 c 13.39733,-4.61998 35.03176,-12.09105 48.07652,-16.60239 46.25397,-15.99624 79.9044,-21.79744 119.8342,-20.65897 26.06219,0.7431 39.687,2.90332 59.15879,9.37973 13.39753,4.45606 33.69713,14.92706 43.86944,22.62885 4.51363,3.41742 8.42323,5.99679 8.68799,5.73195 0.81828,-0.81855 -10.33395,-21.82952 -16.07667,-30.28868 -35.15645,-51.78627 -102.13889,-74.21839 -176.16249,-58.99607 -29.49952,6.06632 -68.09278,21.23146 -98.97281,38.89116 -12.7133,7.2705 -45.80042,27.18984 -58.23685,35.06016 l -3.15579,1.99712 7.00191,6.31076 c 7.62789,6.87496 15.50809,11.92433 22.82764,14.62718 7.46149,2.75526 16.79261,1.00774 43.14812,-8.0808 z"
         id="path1513" />
    </g>
  </g>
</svg>
